# xmcd CD database file generated by Grip 3.3.1
# 
# Track frame offsets:
#       150
#       13523
#       27320
#       41568
#       56545
#       71242
#       85940
#       102684
#       116406
#       130953
#       166903
#       181300
#       195098
#       208670
#       222843
#       237466
#       250963
#       267070
# 
# Disc length: 3733 seconds
# 
# Revision: 1
# Processed by: cddbd v1.5.2PL0 Copyright (c) Steve Scherf et al.
# Submitted via: Grip 3.3.1
# 
DISCID=fe0e9312
DTITLE=Women's Voice - Cool Jazz
DYEAR=2003
DGENRE=Jazz
TTITLE0=Ivie Anderson with Duke Ellington and his Orchestra - Rose of the
TTITLE0=Rio Grande
TTITLE1=Ethel Waters - Black and blue
TTITLE2=Anita O'Day with Gene Krupa and his Orchestra - Skylark
TTITLE3=Ella Fitzgerald - I didn't mean a word I said
TTITLE4=Mildred Bailey and her Orchestra - Lover come back to me
TTITLE5=Sarah Vaughan - Summertime
TTITLE6=Billie Holliday - Stormy weather
TTITLE7=Midge Williams an her Jazz Jespers - Mama's gone - Goodbye
TTITLE8=Peggy Lee with Benny Goodman and his Sextet - On the sunny side of 
TTITLE8=the street
TTITLE9=Betty Roche with Duke Ellington and his Orchestra - Take the "A" 
TTITLE9=train
TTITLE10=Ella Fitzgerald with Jeddy Wilson and his Orchestra - All my life
TTITLE11=Dolores Hawkins - Oooh-wee
TTITLE12=Connie Boswell with the Dorsey Brothers - The river's taking care
TTITLE12=of me
TTITLE13=Maxine Sullivan with John Kirby and his Orchestra - Saint Louis B
TTITLE13=lues
TTITLE14=Boswell Sisters - Old Yazoo
TTITLE15=Mildred Bailey - I'm nobody Baby
TTITLE16=Billie Holliday - These foolish things
TTITLE17=Sarah Vaugham with Georges Treadwell and his All stars - Mean to 
TTITLE17=me
EXTD=YEAR: 2003
EXTT0=
EXTT1=
EXTT2=
EXTT3=
EXTT4=
EXTT5=
EXTT6=
EXTT7=
EXTT8=
EXTT9=
EXTT10=
EXTT11=
EXTT12=
EXTT13=
EXTT14=
EXTT15=
EXTT16=
EXTT17=
PLAYORDER=
